<svg xmlns="http://www.w3.org/2000/svg" data-name="Layer 1" viewBox="0 0 100 125" x="0px" y="0px"><defs><style>.cls-1{fill-rule:evenodd;}</style></defs><title>a</title><path class="cls-1" d="M33.958,45.433a1.2,1.2,0,0,1-1.693,1.694L25.15,40.012a1.2,1.2,0,0,1,0-1.694L32.265,31.2A1.2,1.2,0,0,1,33.958,32.9L27.69,39.165l6.268,6.268Zm15.487,1.694a1.2,1.2,0,0,1-1.694-1.694l6.268-6.268L47.751,32.9A1.2,1.2,0,1,1,49.445,31.2l7.115,7.114a1.2,1.2,0,0,1,0,1.694l-7.115,7.115Zm17.646,5.162H65.135l-1.1,1.1v1.746h0a1.2,1.2,0,0,1-.928,1.165,13.426,13.426,0,0,0-4.051,1.663,1.2,1.2,0,0,1-1.557-.118l-1.24-1.24H54.713l-1.387,1.388v1.553l1.235,1.236,0,0a1.2,1.2,0,0,1,.166,1.481,13.425,13.425,0,0,0-1.691,4.048,1.2,1.2,0,0,1-1.183,1.007H50.105l-1.1,1.1v1.957l1.1,1.1h1.746v0a1.2,1.2,0,0,1,1.165.928,13.426,13.426,0,0,0,1.663,4.051,1.2,1.2,0,0,1-.118,1.557l-1.24,1.24v1.544l1.392,1.393h1.545l1.24-1.241,0,0a1.194,1.194,0,0,1,1.481-.166,13.416,13.416,0,0,0,4.049,1.691,1.2,1.2,0,0,1,1.007,1.183V85.4l1.1,1.1h1.956l1.1-1.1V83.657h0a1.194,1.194,0,0,1,.928-1.165,13.394,13.394,0,0,0,4.051-1.664,1.2,1.2,0,0,1,1.557.118l1.236,1.236h1.553L78.9,80.8V79.245L77.665,78.01l0,0a1.193,1.193,0,0,1-.166-1.48,13.346,13.346,0,0,0,1.028-1.994,13.209,13.209,0,0,0,.663-2.055,1.2,1.2,0,0,1,1.183-1.007h1.746l1.1-1.1V68.416l-1.1-1.1H80.375v0a1.2,1.2,0,0,1-1.165-.929,13.426,13.426,0,0,0-1.663-4.051,1.2,1.2,0,0,1,.118-1.556L78.9,59.544V57.991l-1.383-1.383H75.963l-1.235,1.235,0,0a1.2,1.2,0,0,1-1.481.166A13.385,13.385,0,0,0,69.2,56.315a1.2,1.2,0,0,1-1.007-1.182V53.387l-1.1-1.1Zm3.9,12.228a6.9,6.9,0,1,1-4.878-2.02,6.877,6.877,0,0,1,4.878,2.02ZM66.113,60.1a9.3,9.3,0,1,1-6.571,2.722A9.266,9.266,0,0,1,66.113,60.1ZM43.711,26.18a1.2,1.2,0,0,1,2.283.721L38,52.15a1.2,1.2,0,1,1-2.283-.72l8-25.25ZM67.324,88.9h.263a1.193,1.193,0,0,0,.847-.351l1.793-1.793a1.192,1.192,0,0,0,.358-.854V84.579a15.708,15.708,0,0,0,3.1-1.287l.928.927a1.192,1.192,0,0,0,.854.358h2.545a1.2,1.2,0,0,0,.847-.35l2.078-2.078A1.194,1.194,0,0,0,81.3,81.3V78.749a1.194,1.194,0,0,0-.35-.846l-.935-.935a15.889,15.889,0,0,0,.728-1.518,15.692,15.692,0,0,0,.559-1.583h1.32a1.19,1.19,0,0,0,.846-.35l1.793-1.793a1.194,1.194,0,0,0,.358-.854V67.92a1.191,1.191,0,0,0-.351-.846L83.47,65.281a1.192,1.192,0,0,0-.853-.358H81.3a15.641,15.641,0,0,0-1.287-3.1l.928-.928a1.192,1.192,0,0,0,.358-.854V57.5a1.2,1.2,0,0,0-.35-.847L78.867,54.57a1.194,1.194,0,0,0-.854-.358H75.468a1.193,1.193,0,0,0-.847.351l-.935.935a15.636,15.636,0,0,0-1.517-.728,15.8,15.8,0,0,0-1.584-.559v-1.32a1.2,1.2,0,0,0-.351-.847l-1.793-1.792a1.192,1.192,0,0,0-.854-.358h-.263V9.836A4.848,4.848,0,0,0,62.487,5H19.222a4.848,4.848,0,0,0-4.836,4.836V90.164A4.848,4.848,0,0,0,19.222,95H62.487a4.848,4.848,0,0,0,4.837-4.836V88.9ZM51.31,82.171l2.056,2.056,0,0a1.19,1.19,0,0,0,.844.35h2.442a1.2,1.2,0,0,0,.95-.346l.935-.935a15.708,15.708,0,0,0,3.1,1.287V85.9a1.193,1.193,0,0,0,.351.847l1.793,1.793a1.192,1.192,0,0,0,.854.358h.289v1.268a2.451,2.451,0,0,1-2.441,2.441H19.222a2.451,2.451,0,0,1-2.441-2.441V82.171ZM36.857,88.4a1.2,1.2,0,0,1,0-2.4h7.995a1.2,1.2,0,1,1,0,2.4ZM25.532,7.4H56.177a5.622,5.622,0,0,1-5.483,4.484H31.016A5.625,5.625,0,0,1,25.532,7.4Zm33.075,0a8.017,8.017,0,0,1-7.913,6.879H31.016A8.017,8.017,0,0,1,23.1,7.4h-3.88a2.451,2.451,0,0,0-2.441,2.441V79.775H50.935V78.75a1.193,1.193,0,0,1,.349-.844l0,0,.935-.935a15.708,15.708,0,0,1-1.287-3.1h-1.32a1.2,1.2,0,0,1-.854-.358l-1.792-1.793a1.193,1.193,0,0,1-.351-.847V67.92a1.192,1.192,0,0,1,.358-.853l1.793-1.793a1.191,1.191,0,0,1,.846-.351h1.32a15.71,15.71,0,0,1,.559-1.584,15.525,15.525,0,0,1,.728-1.517l-.935-.935a1.193,1.193,0,0,1-.351-.847V57.5a1.192,1.192,0,0,1,.358-.854l2.078-2.078a1.192,1.192,0,0,1,.95-.346h2.442a1.189,1.189,0,0,1,.844.349l0,0,.935.935a15.525,15.525,0,0,1,1.517-.728,15.71,15.71,0,0,1,1.584-.559v-1.32A1.2,1.2,0,0,1,62,52.037l1.793-1.793a1.2,1.2,0,0,1,.847-.35h.289V9.836A2.451,2.451,0,0,0,62.487,7.4Z"/><text x="0" y="115" fill="#000000" font-size="5px" font-weight="bold" font-family="'Helvetica Neue', Helvetica, Arial-Unicode, Arial, Sans-serif">Created by Orange Cat</text><text x="0" y="120" fill="#000000" font-size="5px" font-weight="bold" font-family="'Helvetica Neue', Helvetica, Arial-Unicode, Arial, Sans-serif">from the Noun Project</text></svg>