<svg xmlns="http://www.w3.org/2000/svg" data-name="Layer 1" viewBox="0 0 64 80" x="0px" y="0px"><path d="M55.88,2.78h-5.36V7.35h2.26v27.88H11.22V7.35h2.26V2.78h-5.36c-.81,0-1.47,.66-1.47,1.47V38.33c0,.81,.66,1.47,1.47,1.47h9.9v2.8h27.96v-2.8h9.9c.81,0,1.47-.66,1.47-1.47V4.25c0-.81-.66-1.47-1.47-1.47Z"/><path d="M7.18,62.15H56.82c2.61,0,5-1.46,6.18-3.78H1c1.19,2.32,3.58,3.78,6.18,3.78Z"/><path d="M63,55.85l-5.74-9.14c.05-.22,.09-.44,.09-.67,0-1.55-1.26-2.8-2.8-2.8h-5.12v2.57H14.57v-2.57h-5.12c-1.55,0-2.8,1.26-2.8,2.8,0,.23,.04,.45,.09,.67L1,55.85H63Z"/><g><path d="M20.15,6.01l1.66,2.44,2.94-4.3c.29-.43,.77-.67,1.28-.67h0c.51,0,.98,.26,1.27,.67l2.02,2.96V2.67c0-.45-.37-.82-.82-.82h-10.82c-.45,0-.82,.37-.82,.82V7.1l.74-1.08c.58-.84,1.98-.84,2.55,0Z"/><path d="M17.68,14.33h10.82c.45,0,.82-.37,.82-.83v-3.04l-3.3-4.82-3.43,5.03c-.35,.51-1.21,.51-1.56,0l-2.16-3.17-2.01,2.96v3.04c0,.46,.37,.83,.82,.83Z"/><path d="M35.5,14.33h10.82c.45,0,.82-.37,.82-.83V2.67c0-.45-.37-.82-.82-.82h-10.82c-.45,0-.82,.37-.82,.82V13.49c0,.46,.37,.83,.82,.83Zm1.84-7.18h2.63v-2.63h1.89v2.63h2.62v1.89h-2.62v2.63h-1.89v-2.63h-2.63v-1.89Z"/><path d="M28.5,18.68h-10.82c-.46,0-.83,.37-.83,.83v10.82c0,.46,.37,.83,.83,.83h10.82c.46,0,.83-.37,.83-.83v-10.82c0-.46-.37-.83-.83-.83Zm-1.84,7.18h-2.63v2.63h-1.89v-2.63h-2.62v-1.89h2.62v-2.62h1.89v2.62h2.63v1.89Z"/><polygon points="34.67 20.01 34.67 29.81 39.57 24.91 34.67 20.01"/><polygon points="45.81 18.68 36.01 18.68 40.91 23.58 45.81 18.68"/><polygon points="36.01 31.15 45.81 31.15 40.91 26.25 36.01 31.15"/><polygon points="42.25 24.91 47.14 29.81 47.14 20.01 42.25 24.91"/></g><text x="0" y="79" fill="#000000" font-size="5px" font-weight="bold" font-family="'Helvetica Neue', Helvetica, Arial-Unicode, Arial, Sans-serif">Created by SHAHAREA</text><text x="0" y="84" fill="#000000" font-size="5px" font-weight="bold" font-family="'Helvetica Neue', Helvetica, Arial-Unicode, Arial, Sans-serif">from the Noun Project</text></svg>