<svg xmlns="http://www.w3.org/2000/svg" version="1.1" viewBox="-5.0 -10.0 110.0 135.0">
 <path d="m34.645 54.93c-0.17578-2.6055-0.26953-5.2969-0.26953-8.0547 0-3.2227 0.125-6.3594 0.36719-9.375h11.43c-0.73828 0.375-1.4453 0.82812-2.1133 1.3555-0.023438 0.019531-0.050782 0.042969-0.070313 0.058593-1.8398 1.4883-3.5117 3.1602-5.0234 4.9805-0.039063 0.050781-0.082032 0.10156-0.125 0.15234-2.1641 2.7305-3.0352 6.1406-2.5977 9.4141-0.57813 0.44531-1.1094 0.9375-1.5977 1.4688zm30.484-23.68h-0.51953c-1.332-9.9062-3.875-18.215-7.0703-23.586 12.156 3.3047 22.055 12.117 26.844 23.586h-18.406c-0.28516-0.003906-0.56641-0.003906-0.84766 0zm-55.762 0c4.7891-11.469 14.688-20.281 26.844-23.586-3.1953 5.3711-5.7383 13.68-7.0703 23.586zm26.844 54.836c-12.156-3.3047-22.055-12.117-26.844-23.586h19.773c1.332 9.9062 3.875 18.215 7.0703 23.586zm-28.875-29.836c-0.70703-3.0078-1.0859-6.1484-1.0859-9.375s0.37891-6.3672 1.0859-9.375h21.145c-0.23047 3.0234-0.35547 6.1641-0.35547 9.375s0.125 6.3516 0.35547 9.375zm39.539-50c0.99609 0 1.9062 0.55469 2.8047 1.3906 1.3164 1.2305 2.5156 3.043 3.6094 5.3008 2.25 4.6172 4 10.953 5.0352 18.309h-22.898c1.0352-7.3555 2.7852-13.691 5.0352-18.309 1.0938-2.2578 2.293-4.0703 3.6094-5.3008 0.89844-0.83594 1.8086-1.3906 2.8047-1.3906zm-2.1484 50.727-1.0156-1.3086c-1.7812-2.2734-1.7695-5.4727 0.027343-7.7344 0.011719-0.019532 0.027344-0.035156 0.039063-0.050782 1.2461-1.5 2.6289-2.8828 4.1445-4.1094 0.007813-0.007813 0.015625-0.015626 0.023437-0.019532 2.2539-1.793 5.4414-1.8047 7.6875-0.046875 0.42969 0.32812 0.89063 0.67969 1.332 1.0234l0.20312-1.6445c0.35156-2.8633 2.6211-5.1172 5.4883-5.4492 0.023438-0.003907 0.046875-0.003907 0.070312-0.003907 1.9375-0.18359 3.8906-0.18359 5.832 0.019532 0.011718 0 0.019531 0.003906 0.03125 0.003906 2.8594 0.32812 5.1211 2.5742 5.4688 5.4062 0.074218 0.53516 0.14844 1.1094 0.21484 1.6641l1.3086-1.0156c2.2734-1.7812 5.4727-1.7695 7.7344 0.027343 0.019532 0.011719 0.035156 0.027344 0.050782 0.039063 1.5 1.2461 2.8828 2.6289 4.1094 4.1445 0.007813 0.007813 0.015626 0.015625 0.019532 0.023437 1.793 2.2539 1.8047 5.4414 0.046875 7.6875-0.32812 0.42969-0.67969 0.89063-1.0234 1.332l1.6445 0.20312c2.8633 0.35156 5.1172 2.6211 5.4492 5.4883 0.003907 0.023438 0.003907 0.046875 0.003907 0.070312 0.18359 1.9375 0.18359 3.8906-0.019532 5.832 0 0.011718-0.003906 0.019531-0.003906 0.03125-0.32812 2.8594-2.5742 5.1211-5.4062 5.4688-0.53516 0.074218-1.1094 0.14844-1.6641 0.21484l1.0156 1.3086c1.7812 2.2734 1.7695 5.4727-0.027343 7.7344-0.011719 0.019532-0.027344 0.035156-0.039063 0.050782-1.2461 1.5-2.6289 2.8828-4.1445 4.1094-0.007813 0.007813-0.015625 0.015626-0.023437 0.019532-2.2539 1.793-5.4414 1.8047-7.6875 0.046875-0.42969-0.32812-0.89063-0.67969-1.332-1.0234l-0.20312 1.6445c-0.35156 2.8633-2.6211 5.1172-5.4883 5.4492-0.023438 0.003907-0.046875 0.003907-0.070312 0.003907-1.9375 0.18359-3.8906 0.18359-5.832-0.019532-0.011718 0-0.019531-0.003906-0.03125-0.003906-2.8594-0.32812-5.1211-2.5742-5.4688-5.4062-0.074218-0.53516-0.14844-1.1094-0.21484-1.6641l-1.3086 1.0156c-2.2734 1.7812-5.4727 1.7695-7.7344-0.027343-0.019532-0.011719-0.035156-0.027344-0.050782-0.039063-1.5-1.2461-2.8828-2.6289-4.1094-4.1445-0.007813-0.007813-0.015626-0.015625-0.019532-0.023437-1.793-2.2539-1.8047-5.4414-0.046875-7.6875 0.32812-0.42969 0.67969-0.89063 1.0234-1.332l-1.6445-0.20312c-2.8633-0.35156-5.1172-2.6211-5.4492-5.4883-0.003907-0.023438-0.003907-0.046875-0.003907-0.070312-0.18359-1.9375-0.18359-3.8906 0.019532-5.832 0-0.011718 0.003906-0.019531 0.003906-0.03125 0.32812-2.8594 2.5742-5.1211 5.4062-5.4688 0.53516-0.074218 1.1094-0.14844 1.6641-0.21484zm20.898-1.2266c-5.4492 0-9.875 4.4258-9.875 9.875s4.4258 9.875 9.875 9.875 9.875-4.4258 9.875-9.875-4.4258-9.875-9.875-9.875zm0 6.25c2 0 3.625 1.625 3.625 3.625s-1.625 3.625-3.625 3.625-3.625-1.625-3.625-3.625 1.625-3.625 3.625-3.625z" fill-rule="evenodd"/>
<text x="0.0" y="117.5" font-size="5.0" font-weight="bold" font-family="Arbeit Regular, Helvetica, Arial-Unicode, Arial, Sans-serif" fill="#000000">Created by Yudhi Restu Pebriyanto</text><text x="0.0" y="122.5" font-size="5.0" font-weight="bold" font-family="Arbeit Regular, Helvetica, Arial-Unicode, Arial, Sans-serif" fill="#000000">from Noun Project</text></svg>